<?xml version="1.0" encoding="utf-8"?>

<!-- Uploaded to: SVG Repo, www.svgrepo.com, Generator: SVG Repo Mixer Tools -->
<svg version="1.1" id="Icons" xmlns="http://www.w3.org/2000/svg" xmlns:xlink="http://www.w3.org/1999/xlink" 
	 viewBox="0 0 32 32" xml:space="preserve">
<style type="text/css">
	.st0{fill:none;stroke:#000000;stroke-width:2;stroke-linecap:round;stroke-linejoin:round;stroke-miterlimit:10;}
</style>
<path d="M29,17h-6c-1.7,0-3,1.3-3,3v3.5c0,1.9-1.6,3.5-3.5,3.5S13,25.4,13,23.5v-2.6c3.4-0.5,6-3.4,6-6.9v-2.1c1.1-0.2,2-1.2,2-2.4
	C21,8.1,19.9,7,18.5,7H17V3c0-0.6-0.4-1-1-1s-1,0.4-1,1v4H9V3c0-0.6-0.4-1-1-1S7,2.4,7,3v4H5.5C4.1,7,3,8.1,3,9.5
	c0,1.2,0.9,2.2,2,2.4V14c0,3.5,2.6,6.4,6,6.9v2.6c0,3,2.5,5.5,5.5,5.5s5.5-2.5,5.5-5.5V20c0-0.6,0.4-1,1-1h6c0.6,0,1-0.4,1-1
	S29.6,17,29,17z M11,16c-0.6,0-1-0.4-1-1s0.4-1,1-1h2c0.6,0,1,0.4,1,1s-0.4,1-1,1H11z"/>
</svg>