<?xml version="1.0" encoding="iso-8859-1"?>
<!-- Uploaded to: SVG Repo, www.svgrepo.com, Generator: SVG Repo Mixer Tools -->
<svg fill="#000000" height="50px" width="50px" version="1.1" id="Layer_1" xmlns="http://www.w3.org/2000/svg" xmlns:xlink="http://www.w3.org/1999/xlink" 
	 viewBox="0 0 503.609 503.609" xml:space="preserve">
<g>
	<g>
		<g>
			<path d="M260.198,436.562V293.345C330.334,288.98,386.1,230.696,386.1,159.478c0-5.523-0.47-11.138-1.2-16.787h-74.416v1.335
				c0,8.553-4.566,16.006-11.348,20.22l21.244,21.252c9.292,9.292,9.292,24.417,0.008,33.708l-25.642,25.634
				c-4.65,4.65-10.752,6.975-16.854,6.975c-6.11,0-12.212-2.325-16.862-6.975l-25.634-25.634c-3.257-3.257-5.305-7.244-6.278-11.432
				c-2.946,1.309-6.194,2.065-9.619,2.065h-36.251c-13.144,0-23.846-10.693-23.846-23.846V149.75c0-2.476,0.487-4.818,1.192-7.059
				H118.71c-0.739,5.649-1.2,11.264-1.2,16.787c0,71.218,55.766,129.502,125.902,133.867v143.217
				c-28.143,0.621-109.115,4.885-109.115,33.473c0,32.634,105.48,33.574,117.508,33.574c12.028,0,117.508-0.94,117.508-33.574
				C369.313,441.447,288.341,437.183,260.198,436.562z M344.132,159.478c4.633,0,8.393,3.76,8.393,8.393s-3.76,8.393-8.393,8.393
				s-8.393-3.76-8.393-8.393S339.499,159.478,344.132,159.478z M209.837,243.412c-4.633,0-8.393-3.76-8.393-8.393
				s3.76-8.393,8.393-8.393s8.393,3.76,8.393,8.393S214.471,243.412,209.837,243.412z M251.805,486.822
				c-58.167,0-94.242-10.349-100.26-16.787c5.724-6.119,38.66-15.755,91.866-16.695v16.695c0,4.642,3.76,8.393,8.393,8.393
				c4.633,0,8.393-3.752,8.393-8.393v-16.695c53.206,0.94,86.142,10.576,91.866,16.695
				C346.046,476.473,309.971,486.822,251.805,486.822z"/>
			<path d="M219.495,125.902h7.059V107.78c0-13.144,10.693-23.846,23.837-23.846h36.251c13.144,0,23.846,10.702,23.846,23.846
				v18.121h71.403L360.748,23.485c-0.059-0.285-0.235-0.504-0.327-0.772C355.351,3.072,290.94,0,251.801,0
				c-39.13,0-103.55,3.072-108.62,22.713c-0.084,0.269-0.26,0.487-0.319,0.772L121.72,125.902h61.524H219.495z M177.813,28.042
				c-2.275-0.428-4.373-0.865-6.27-1.301c-0.311-0.076-0.604-0.151-0.906-0.227c-1.746-0.42-3.332-0.831-4.717-1.242
				c-0.101-0.034-0.218-0.059-0.319-0.092c12.934-3.903,41.992-8.393,86.201-8.393c44.217,0,73.266,4.49,86.209,8.393
				c-0.101,0.034-0.218,0.059-0.319,0.092c-1.385,0.411-2.98,0.823-4.717,1.242c-0.311,0.076-0.596,0.151-0.915,0.227
				c-1.888,0.436-3.987,0.873-6.261,1.301c-0.411,0.076-0.856,0.151-1.276,0.227c-2.342,0.428-4.835,0.848-7.554,1.242
				c-0.117,0.017-0.21,0.034-0.327,0.05c-2.77,0.403-5.808,0.789-8.973,1.15c-0.638,0.076-1.284,0.151-1.939,0.218
				c-3.215,0.353-6.597,0.68-10.19,0.982c-0.487,0.034-0.999,0.067-1.486,0.109c-3.366,0.26-6.899,0.495-10.584,0.705
				c-0.68,0.034-1.335,0.076-2.023,0.117c-3.995,0.201-8.2,0.361-12.557,0.487c-0.932,0.025-1.88,0.042-2.82,0.067
				c-4.583,0.109-9.3,0.176-14.269,0.176c-4.969,0-9.678-0.067-14.26-0.176c-0.94-0.025-1.897-0.042-2.82-0.067
				c-4.356-0.126-8.561-0.285-12.557-0.487c-0.688-0.042-1.343-0.084-2.023-0.117c-3.685-0.21-7.227-0.445-10.584-0.705
				c-0.487-0.042-1.007-0.076-1.486-0.109c-3.592-0.302-6.975-0.63-10.19-0.982c-0.655-0.067-1.301-0.143-1.947-0.218
				c-3.164-0.361-6.194-0.747-8.973-1.15c-0.109-0.017-0.21-0.034-0.319-0.05c-2.719-0.395-5.212-0.814-7.554-1.242
				C178.661,28.194,178.224,28.118,177.813,28.042z"/>
			<path d="M183.243,142.691c-3.886,0-7.051,3.164-7.051,7.059v36.243c0,3.895,3.164,7.059,7.051,7.059h36.251
				c3.895,0,7.059-3.164,7.059-7.059V149.75c0-3.895-3.164-7.059-7.059-7.059H183.243z"/>
			<path d="M272.898,171.723l-25.634,25.642c-2.745,2.745-2.745,7.227,0,9.971l25.634,25.634c2.745,2.745,7.218,2.753,9.98,0
				l25.634-25.634c2.745-2.745,2.745-7.227,0-9.971l-25.634-25.642c-1.377-1.377-3.181-2.065-4.994-2.065
				C276.079,169.658,274.275,170.347,272.898,171.723z"/>
		</g>
	</g>
</g>
</svg>