<?xml version="1.0" encoding="UTF-8"?>
<svg id="Layer_1" data-name="Layer 1" xmlns="http://www.w3.org/2000/svg" viewBox="0 0 348.75 347.34">
  <defs>
    <style>
      .cls-1 {
        fill: none;
      }

      .cls-1, .cls-2, .cls-3 {
        stroke: #ffffff;
        stroke-miterlimit: 10;
        stroke-width: 11px;
      }

      .cls-2 {
        fill: none;
      }

      .cls-3 {
        fill: none;
      }
    </style>
  </defs>
  <path class="cls-1" d="M83.92,73.45c-11.93-5.21-22.81-4.09-26.47-3.32-11.46,2.42-23.17,8.64-31.59,16.62-15.34,14.54-18.18,33.27-19.35,40.73-6.13,38.94,16.98,72.29,36.14,99.95,3.71,5.36,21.93,31.25,54.42,58.72,54.28,45.9,97.46,53.13,107.62,54.57,16.4,2.33,29.3,1.28,40.93-5.17,13.31-7.39,19.73-18.96,22.67-24.42,3.68-6.84,14.87-27.63,5.96-46.15-5.3-11.01-15.12-15.86-28.13-22.29-13.24-6.54-26.92-13.3-40.82-9.17-17.26,5.13-16.48,21.81-31.05,25-14.85,3.26-29.13-10.22-47.06-27.14-19.28-18.2-40.62-38.34-36-57.13,3.48-14.15,18.07-13.21,24.19-31.45,5.58-16.63-1.42-32.74-4.16-39.06-2.88-6.64-9.86-22.69-27.29-30.3Z"/>
  <line class="cls-1" x1="99.25" y1="156.51" x2="59.73" y2="73.45"/>
  <line class="cls-1" x1="185.86" y1="251" x2="274.65" y2="287.96"/>
  <path class="cls-1" d="M142.8,164.17c3.76-8.6,7.53-17.2,11.29-25.81-1.92-4.94-16.89-45.59,6.85-85.48,21.5-36.12,58.5-44.33,64.52-45.56,40.83-7.67,81.83,9.42,103.23,42.74,27.73,43.18,7.64,90.38,6.05,93.95-3.12,6.22-19.68,37.62-58.1,50.67-39.83,13.52-73.19-2.87-79.02-5.86-7.14,2.73-16.94,6.17-28.81,9.42-19.29,5.27-29.02,7.83-33.27,3.85-5.87-5.51-2.08-21.08,7.26-37.9Z"/>
  <path class="cls-1" d="M202.88,52.48c-1.95,1.28-7.72,5.41-10.48,13.31-3.47,9.94.39,18.45,1.21,20.16-5.37,2.01-9.16,6.73-9.68,12.1-.64,6.65,3.85,13.22,10.89,15.32,1.81.67,6.25,2.04,11.69.81,7.18-1.64,11.1-6.68,12.1-8.06,3.14,2.41,10.78,7.57,21.77,8.47,15.42,1.25,26.37-6.8,29.03-8.87,1.59,2.01,4.95,5.68,10.48,8.06,7.68,3.3,14.63,2,17.06,1.42.85-.49,6.91-4.1,7.94-11.1.99-6.7-3.04-13.73-10.08-16.94,1.57-1.37,5.1-4.86,6.45-10.48,1.74-7.23-1.31-13.09-2.46-15.3-2.21-4.24-5.52-7.66-10.21-10.73-19.5-12.75-53.04-13.63-72.26-5.63-5.02,2.09-9.48,4.65-13.45,7.46Z"/>
  <path class="cls-1" d="M196.78,113.99c-.35.68-2.05,4.12-.76,8.25,1.51,4.83,5.87,6.63,6.45,6.85-1.06.43-12.01,5.03-12.96,14.02-.53,4.99,2.29,8.94,2.88,9.77,6.48,9.09,20.79,7.07,54.44,6.45,32.91-.6,46.65.83,50.92-7.45,1.54-2.98,2.29-8.09.29-12.71-2.72-6.28-9.16-8.45-10.48-8.87.8-.19,5.42-1.4,8.06-6.05,2.33-4.1,1.55-8.11,1.33-9.07"/>
  <path class="cls-3" d="M192.11,86.6c34.23.19,68.47.37,102.7.56"/>
  <circle class="cls-2" cx="223.04" cy="62.96" r="1.41"/>
  <circle class="cls-2" cx="244.45" cy="62.96" r="1.41"/>
  <circle class="cls-2" cx="266.59" cy="62.96" r="1.41"/>
</svg>