<?xml version="1.0" ?><!DOCTYPE svg  PUBLIC '-//W3C//DTD SVG 1.1//EN'  'http://www.w3.org/Graphics/SVG/1.1/DTD/svg11.dtd'><svg height="100%" style="fill-rule:evenodd;clip-rule:evenodd;stroke-linejoin:round;stroke-miterlimit:2;" version="1.1" viewBox="0 0 32 32" width="100%" xml:space="preserve" xmlns="http://www.w3.org/2000/svg" xmlns:serif="http://www.serif.com/" xmlns:xlink="http://www.w3.org/1999/xlink"><path d="M13.167,25.998c-0.111,0.313 -0.171,0.649 -0.171,1c0,1.657 1.345,3.002 3.002,3.002c1.657,-0 3.002,-1.345 3.002,-3.002c0,-0.35 -0.06,-0.686 -0.17,-0.999l1.963,0.001c0.552,-0 1,-0.448 1,-1c0,-0.552 -0.448,-1 -1,-1l-15.88,-0.004c-0.55,-0 -0.996,-0.446 -0.996,-0.996c-0,-0 -0,-0.004 -0,-0.004c-0,-0.55 0.446,-0.996 0.996,-0.996c-0,-0 3.083,-0 3.083,-0l0,-7.998c0,-0.746 0.104,-1.48 0.304,-2.185c0.151,-0.531 -0.158,-1.084 -0.689,-1.235c-0.531,-0.15 -1.084,0.158 -1.235,0.689c-0.25,0.881 -0.38,1.799 -0.38,2.731c0,-0 0,5.998 0,5.998c0,-0 -1.083,-0 -1.083,-0c-1.655,-0 -2.996,1.341 -2.996,2.996l-0,0.004c-0,1.654 1.341,2.996 2.996,2.996l8.254,0.002Zm2.755,0.001l0.153,-0c0.517,0.039 0.925,0.471 0.925,0.999c0,0.553 -0.449,1.002 -1.002,1.002c-0.553,-0 -1.002,-0.449 -1.002,-1.002c0,-0.528 0.408,-0.961 0.926,-0.999Z"/><path d="M25.06,22l1.944,-0c0.55,-0 0.996,0.446 0.996,0.996c0,-0 -0,0.004 -0,0.004c-0,0.24 -0.085,0.46 -0.226,0.632c-0.351,0.426 -0.29,1.057 0.136,1.407c0.427,0.351 1.057,0.29 1.408,-0.136c0.426,-0.518 0.682,-1.181 0.682,-1.903l0,-0.004c-0,-1.655 -1.341,-2.996 -2.996,-2.996l-0.962,-0l-0,-6c-0,-2.652 -1.096,-5.195 -2.972,-7.071c-1.637,-1.637 -3.784,-2.648 -6.068,-2.879l0,-1.05c0,-0.552 -0.448,-1 -1,-1c-0.552,-0 -1,0.448 -1,1l0,1.049c-1.69,0.17 -3.305,0.766 -4.694,1.727c-0.454,0.314 -0.567,0.937 -0.253,1.391c0.314,0.454 0.937,0.568 1.391,0.254c1.328,-0.919 2.914,-1.421 4.552,-1.421l-0,-0c2.122,-0 4.158,0.843 5.658,2.344c1.501,1.501 2.386,3.533 2.386,5.656l-0,7c-0,0.552 0.448,1 1,1c0.006,-0 0.012,-0 0.018,-0Z"/><path d="M2.209,3.629l26,26c0.391,0.39 1.024,0.39 1.415,0c0.39,-0.39 0.39,-1.024 -0,-1.414l-26,-26c-0.391,-0.39 -1.024,-0.39 -1.415,-0c-0.39,0.39 -0.39,1.024 0,1.414Z"/></svg>