<?xml version="1.0" encoding="iso-8859-1"?>
<!-- Uploaded to: SVG Repo, www.svgrepo.com, Generator: SVG Repo Mixer Tools -->
<svg fill="#000000" height="800px" width="800px" version="1.1" id="Layer_1" xmlns="http://www.w3.org/2000/svg" xmlns:xlink="http://www.w3.org/1999/xlink" 
	 viewBox="0 0 512 512" xml:space="preserve">
<g>
	<g>
		<path d="M503.983,0.043H8.017C3.589,0.043,0,3.631,0,8.059v427.557c0,4.428,3.589,8.017,8.017,8.017h357.01
			c0.114,0,0.227-0.013,0.34-0.017l60.996,60.996c4.897,4.897,11.329,7.344,17.762,7.344c6.433,0,12.865-2.448,17.762-7.344
			c9.668-9.698,9.694-25.831,0-35.525l-25.454-25.454h67.55c4.427,0,8.017-3.588,8.017-8.017V8.061
			C512,3.631,508.411,0.043,503.983,0.043z M426.489,16.076h35.273v70.547l-11.223-14.964c-1.515-2.019-3.89-3.207-6.413-3.207
			c-2.524,0-4.899,1.188-6.413,3.207l-11.223,14.964V16.076z M450.548,480.427c1.718,1.714,2.663,3.995,2.663,6.423
			c0,2.427-0.945,4.708-2.662,6.425c-3.542,3.542-9.306,3.542-12.849,0l-91.077-91.076l12.849-12.849L450.548,480.427z
			 M495.967,427.6H420.61c-0.067,0-0.133,0.009-0.2,0.01l-28.126-28.126V187.99c0-4.428-3.589-8.017-8.017-8.017
			c-4.427,0-8.017,3.588-8.017,8.017v195.461l-11.109-11.109c-3.086-3.086-8.251-3.086-11.337,0l-6.424,6.424l-31.126-31.126
			c27.078-29.835,41.898-68.129,41.898-108.701c0-43.255-16.845-83.921-47.431-114.507c-63.14-63.137-165.875-63.137-229.014,0
			c-30.586,30.586-47.43,71.253-47.43,114.507s16.844,83.921,47.43,114.507c31.574,31.573,73.033,47.354,114.506,47.354
			c38.966,0,77.945-13.947,108.698-41.827l31.129,31.129l-6.424,6.424c-3.131,3.132-3.131,8.207,0,11.338l19.733,19.733H16.033
			V16.073h360.217v137.709c0,4.428,3.589,8.017,8.017,8.017c4.427,0,8.017-3.588,8.017-8.017V16.076h18.171v94.597
			c0,3.451,2.208,6.515,5.481,7.605c3.274,1.091,6.878-0.035,8.949-2.795l19.24-25.653l19.24,25.653
			c2.179,2.905,6.163,3.987,9.514,2.582c2.947-1.236,4.916-4.198,4.916-7.393V16.076h18.171V427.6z M299.386,342.111
			c-56.889,56.888-149.452,56.888-206.34-0.001c-56.888-56.888-56.888-149.451,0-206.338c28.444-28.444,65.806-42.666,103.17-42.666
			c37.363,0,74.726,14.222,103.171,42.666c27.557,27.557,42.734,64.197,42.734,103.17
			C342.121,277.914,326.944,314.553,299.386,342.111z"/>
	</g>
</g>
<g>
	<g>
		<path d="M296.498,159.807c-2.747-3.471-7.789-4.062-11.261-1.314c-3.473,2.746-4.061,7.788-1.314,11.26
			c35.11,44.387,31.359,108.087-8.723,148.17c-21.779,21.779-50.376,32.666-78.984,32.664c-28.6-0.003-57.209-10.89-78.984-32.664
			c-43.551-43.551-43.551-114.415,0-157.966c37.359-37.36,96.422-43.381,140.439-14.319c3.694,2.438,8.667,1.422,11.107-2.272
			c2.439-3.695,1.422-8.668-2.273-11.108c-50.345-33.24-117.89-26.358-160.61,16.362c-49.803,49.804-49.803,130.839,0,180.643
			c24.901,24.901,57.611,37.351,90.32,37.351c32.71,0,65.419-12.451,90.322-37.351C332.372,283.425,336.656,210.575,296.498,159.807
			z"/>
	</g>
</g>
<g>
	<g>
		<path d="M196.142,153.963c-11.493,0-20.843,9.351-20.843,20.843v68.409c0,11.493,9.351,20.843,20.843,20.843
			s20.843-9.351,20.843-20.843v-68.409C216.985,163.314,207.635,153.963,196.142,153.963z M200.952,243.216
			c0,2.652-2.158,4.81-4.81,4.81s-4.81-2.158-4.81-4.81v-68.409c0-2.652,2.158-4.81,4.81-4.81s4.81,2.158,4.81,4.81V243.216z"/>
	</g>
</g>
<g>
	<g>
		<path d="M196.142,273.68c-13.851,0-25.119,11.268-25.119,25.119c0,13.851,11.268,25.119,25.119,25.119
			s25.119-11.268,25.119-25.119C221.261,284.948,209.993,273.68,196.142,273.68z M196.142,307.884c-5.01,0-9.086-4.076-9.086-9.086
			c0-5.01,4.076-9.086,9.086-9.086s9.086,4.076,9.086,9.086C205.228,303.808,201.152,307.884,196.142,307.884z"/>
	</g>
</g>
<g>
	<g>
		<path d="M50.772,42.799c-4.427,0-8.017,3.588-8.017,8.017v8.551c0,4.428,3.589,8.017,8.017,8.017s8.017-3.588,8.017-8.017v-8.551
			C58.789,46.387,55.2,42.799,50.772,42.799z"/>
	</g>
</g>
<g>
	<g>
		<path d="M76.426,42.799c-4.427,0-8.017,3.588-8.017,8.017v8.551c0,4.428,3.589,8.017,8.017,8.017s8.017-3.588,8.017-8.017v-8.551
			C84.443,46.387,80.853,42.799,76.426,42.799z"/>
	</g>
</g>
<g>
	<g>
		<path d="M341.511,42.799c-4.427,0-8.017,3.588-8.017,8.017v8.551c0,4.428,3.589,8.017,8.017,8.017s8.017-3.588,8.017-8.017v-8.551
			C349.528,46.387,345.939,42.799,341.511,42.799z"/>
	</g>
</g>
<g>
	<g>
		<path d="M315.858,42.799c-4.427,0-8.017,3.588-8.017,8.017v8.551c0,4.428,3.589,8.017,8.017,8.017s8.017-3.588,8.017-8.017v-8.551
			C323.875,46.387,320.285,42.799,315.858,42.799z"/>
	</g>
</g>
<g>
	<g>
		<path d="M290.205,42.799c-4.427,0-8.017,3.588-8.017,8.017v8.551c0,4.428,3.589,8.017,8.017,8.017s8.017-3.588,8.017-8.017v-8.551
			C298.221,46.387,294.632,42.799,290.205,42.799z"/>
	</g>
</g>
<g>
	<g>
		<path d="M247.449,42.799c-4.427,0-8.017,3.588-8.017,8.017v8.551c0,4.428,3.589,8.017,8.017,8.017s8.017-3.588,8.017-8.017v-8.551
			C255.466,46.387,251.876,42.799,247.449,42.799z"/>
	</g>
</g>
<g>
	<g>
		<path d="M221.795,42.799c-4.427,0-8.017,3.588-8.017,8.017v8.551c0,4.428,3.589,8.017,8.017,8.017s8.017-3.588,8.017-8.017v-8.551
			C229.812,46.387,226.223,42.799,221.795,42.799z"/>
	</g>
</g>
<g>
	<g>
		<path d="M196.142,42.799c-4.427,0-8.017,3.588-8.017,8.017v8.551c0,4.428,3.589,8.017,8.017,8.017s8.017-3.588,8.017-8.017v-8.551
			C204.159,46.387,200.569,42.799,196.142,42.799z"/>
	</g>
</g>
<g>
	<g>
		<path d="M170.489,42.799c-4.427,0-8.017,3.588-8.017,8.017v8.551c0,4.428,3.589,8.017,8.017,8.017s8.017-3.588,8.017-8.017v-8.551
			C178.505,46.387,174.916,42.799,170.489,42.799z"/>
	</g>
</g>
<g>
	<g>
		<path d="M119.182,42.799c-4.427,0-8.017,3.588-8.017,8.017v8.551c0,4.428,3.589,8.017,8.017,8.017s8.017-3.588,8.017-8.017v-8.551
			C127.198,46.387,123.609,42.799,119.182,42.799z"/>
	</g>
</g>
</svg>