<?xml version="1.0" encoding="iso-8859-1"?>
<!-- Uploaded to: SVG Repo, www.svgrepo.com, Generator: SVG Repo Mixer Tools -->
<svg fill="#000000" height="800px" width="800px" version="1.1" id="Layer_1" xmlns="http://www.w3.org/2000/svg" xmlns:xlink="http://www.w3.org/1999/xlink" 
	 viewBox="0 0 512 512" xml:space="preserve">
<g>
	<g>
		<path d="M469.333,149.333H384v-45.696c36.715-9.536,64-42.667,64-82.304C448,9.557,438.464,0,426.667,0h-128
			c-11.776,0-21.333,9.557-21.333,21.333c0,39.637,27.307,72.768,64,82.304v45.696h-97.195c7.36-12.608,11.861-27.051,11.861-42.667
			c0-11.776-9.536-21.333-21.333-21.333h-2.795l20.544-30.827c6.549-9.813,3.904-23.061-5.909-29.589
			c-9.856-6.571-23.061-3.883-29.589,5.909l-36.331,54.507h-73.92c-11.776,0-21.333,9.557-21.333,21.333
			c0,15.616,4.523,30.059,11.883,42.667H42.667c-11.776,0-21.333,9.557-21.333,21.333V384c0,11.776,9.557,21.333,21.333,21.333H64
			v27.243c-12.693,7.403-21.333,21.013-21.333,36.757c0,23.573,19.115,42.667,42.667,42.667C108.907,512,128,492.907,128,469.333
			c0-15.744-8.619-29.355-21.333-36.757v-27.243h298.667v27.243C392.64,439.979,384,453.589,384,469.333
			C384,492.907,403.115,512,426.667,512c23.573,0,42.667-19.093,42.667-42.667c0-15.744-8.619-29.355-21.333-36.757v-27.243h21.333
			c11.797,0,21.333-9.557,21.333-21.333V170.667C490.667,158.891,481.131,149.333,469.333,149.333z M170.667,149.333
			c-15.765,0-29.547-8.597-36.928-21.333h73.877C200.235,140.736,186.453,149.333,170.667,149.333z M325.739,42.667h73.877
			C392.235,55.403,378.453,64,362.667,64C346.901,64,333.12,55.403,325.739,42.667z"/>
	</g>
</g>
</svg>