<?xml version="1.0" encoding="iso-8859-1"?>
<!-- Generator: Adobe Illustrator 16.0.0, SVG Export Plug-In . SVG Version: 6.00 Build 0)  -->
<!DOCTYPE svg PUBLIC "-//W3C//DTD SVG 1.1//EN" "http://www.w3.org/Graphics/SVG/1.1/DTD/svg11.dtd">
<svg version="1.1" id="Capa_1" xmlns="http://www.w3.org/2000/svg" xmlns:xlink="http://www.w3.org/1999/xlink" x="0px" y="0px"
	 width="387.275px" height="387.276px" viewBox="0 0 387.275 387.276" style="enable-background:new 0 0 387.275 387.276;"
	 xml:space="preserve">
<g>
	<path d="M381.957,231.206c3.273-1.754,5.318-5.166,5.318-8.881v-33.332c0-3.715-2.045-7.128-5.318-8.882
		c-2.846-1.523-5.92-2.711-9.135-3.587c-4.77-20.63-17.564-50.962-39.711-78.19c-25.828-31.754-72.742-69.607-149.576-69.607H24.117
		C10.818,28.727,0,39.547,0,52.846v234.946c0,8.019,3.938,15.131,9.975,19.519c-0.146,1.514-0.227,3.047-0.227,4.6
		c0,25.758,20.879,46.638,46.637,46.638c25.758,0,46.637-20.88,46.637-46.638h168.949c0,25.758,20.881,46.638,46.639,46.638
		s46.639-20.88,46.639-46.638c0-4.477-0.646-8.801-1.822-12.898l11.588-0.018c4.367-0.008,8.371-2.428,10.406-6.293
		c2.035-3.862,1.766-8.535-0.699-12.14c-7.822-11.435-16.869-17.812-25.521-21.212c4.723-7.729,8.059-15.785,10.408-23.792
		C374,234.685,378.174,233.233,381.957,231.206z M56.385,332.149c-11.16,0-20.238-9.08-20.238-20.24s9.078-20.238,20.238-20.238
		s20.238,9.078,20.238,20.238S67.545,332.149,56.385,332.149z M145.258,230.411c0,0-16.234,0.062-35.119,0.062
		c-18.885,0-7.002-57.427-55.953-57.427V70.449h91.072V230.411z M191.897,161.884V70.449h1.203c34.707,0,69.562,18.23,98.136,51.332
		c10.658,12.347,19.791,26.098,26.664,40.104L191.897,161.884L191.897,161.884z M318.609,332.149c-11.16,0-20.238-9.08-20.238-20.24
		s9.078-20.238,20.238-20.238s20.238,9.078,20.238,20.238S329.77,332.149,318.609,332.149z"/>
</g>
<g>
</g>
<g>
</g>
<g>
</g>
<g>
</g>
<g>
</g>
<g>
</g>
<g>
</g>
<g>
</g>
<g>
</g>
<g>
</g>
<g>
</g>
<g>
</g>
<g>
</g>
<g>
</g>
<g>
</g>
</svg>
